<mxfile host="app.diagrams.net" modified="2024-02-24T17:06:19.317Z" agent="Mozilla/5.0 (X11; Linux x86_64) AppleWebKit/537.36 (KHTML, like Gecko) Chrome/116.0.0.0 Safari/537.36" etag="FmNWMN6g7Yio60yP4XHq" version="23.1.4" type="device">
  <diagram name="Страница — 1" id="hFreGPjaM7V96lW3blHe">
    <mxGraphModel dx="700" dy="762" grid="1" gridSize="12" guides="1" tooltips="1" connect="1" arrows="1" fold="1" page="1" pageScale="1" pageWidth="1654" pageHeight="2336" math="0" shadow="0">
      <root>
        <mxCell id="0" />
        <mxCell id="1" parent="0" />
      </root>
    </mxGraphModel>
  </diagram>
</mxfile>
